<svg width="138" height="32" viewBox="0 0 138 32" fill="none" xmlns="http://www.w3.org/2000/svg">
    <path d="M29.3015 4.40389C28.9548 4.75058 28.9548 5.31267 29.3015 5.65936L33.4454 9.80323C33.7921 10.1499 34.3542 10.1499 34.7009 9.80323L38.8448 5.65936C39.1915 5.31267 39.1915 4.75058 38.8448 4.40389L34.7009 0.260017C34.3542 -0.0866724 33.7921 -0.0866725 33.4454 0.260017L29.3015 4.40389Z"
          fill="#FF5D02"/>
    <path d="M22.2912 12.6697C21.9445 12.323 21.9445 11.7609 22.2912 11.4142L26.435 7.27038C26.7817 6.92369 27.3438 6.92369 27.6905 7.27038L31.8344 11.4142C32.1811 11.7609 32.1811 12.323 31.8344 12.6697L27.6905 16.8136C27.3438 17.1603 26.7817 17.1603 26.435 16.8136L22.2912 12.6697Z"
          fill="#FF5D02"/>
    <path d="M1.26002 19.6801C0.913327 19.3334 0.913328 18.7713 1.26002 18.4246L5.40389 14.2808C5.75058 13.9341 6.31267 13.9341 6.65937 14.2808L10.8032 18.4246C11.1499 18.7713 11.1499 19.3334 10.8032 19.6801L6.65937 23.824C6.31267 24.1707 5.75058 24.1707 5.40389 23.824L1.26002 19.6801Z"
          fill="#FF5D02"/>
    <path d="M8.27042 26.6905C7.92373 26.3438 7.92373 25.7817 8.27042 25.435L12.4143 21.2911C12.761 20.9444 13.3231 20.9444 13.6698 21.2911L17.8136 25.435C18.1603 25.7817 18.1603 26.3438 17.8136 26.6905L13.6698 30.8343C13.3231 31.181 12.761 31.181 12.4143 30.8343L8.27042 26.6905Z"
          fill="#FF5D02"/>
    <path d="M15.2808 18.4246C14.9341 18.7713 14.9341 19.3334 15.2808 19.6801L19.4247 23.824C19.7713 24.1707 20.3334 24.1707 20.6801 23.824L24.824 19.6801C25.1707 19.3334 25.1707 18.7713 24.824 18.4246L20.6801 14.2808C20.3334 13.9341 19.7713 13.9341 19.4247 14.2808L15.2808 18.4246Z"
          fill="#FF5D02"/>
    <path d="M50.1562 12.5977C50.1562 12.2695 50.2188 11.9609 50.3438 11.6719C50.4688 11.375 50.6406 11.1211 50.8594 10.9102C51.0781 10.6914 51.332 10.5195 51.6211 10.3945C51.918 10.2617 52.2305 10.1953 52.5586 10.1953H61.6758C62.0039 10.1953 62.3125 10.2617 62.6016 10.3945C62.8984 10.5195 63.1562 10.6914 63.375 10.9102C63.5938 11.1211 63.7656 11.375 63.8906 11.6719C64.0156 11.9609 64.0781 12.2695 64.0781 12.5977V14.7656H61.6758V12.5977H52.5586V24.5977H61.6758V22.4414H64.0781V24.5977C64.0781 24.9258 64.0156 25.2383 63.8906 25.5352C63.7656 25.8242 63.5938 26.0781 63.375 26.2969C63.1562 26.5156 62.8984 26.6875 62.6016 26.8125C62.3125 26.9375 62.0039 27 61.6758 27H52.5586C52.2305 27 51.918 26.9375 51.6211 26.8125C51.332 26.6875 51.0781 26.5156 50.8594 26.2969C50.6406 26.0781 50.4688 25.8242 50.3438 25.5352C50.2188 25.2383 50.1562 24.9258 50.1562 24.5977V12.5977ZM81.6277 10.1953V27H79.2253V19.8047H69.6042V27H67.2019V10.1953H69.6042V17.4023H79.2253V10.1953H81.6277ZM85.2319 10.1953H97.478V12.5977H87.6342V17.4023H96.0366V19.8047H87.6342V24.5977H97.478V27H85.2319V10.1953ZM100.356 12.5977C100.356 12.2695 100.418 11.9609 100.543 11.6719C100.668 11.375 100.84 11.1211 101.059 10.9102C101.278 10.6914 101.531 10.5195 101.82 10.3945C102.117 10.2617 102.43 10.1953 102.758 10.1953H111.875C112.203 10.1953 112.512 10.2617 112.801 10.3945C113.098 10.5195 113.356 10.6914 113.574 10.9102C113.793 11.1211 113.965 11.375 114.09 11.6719C114.215 11.9609 114.278 12.2695 114.278 12.5977V14.7656H111.875V12.5977H102.758V24.5977H111.875V22.4414H114.278V24.5977C114.278 24.9258 114.215 25.2383 114.09 25.5352C113.965 25.8242 113.793 26.0781 113.574 26.2969C113.356 26.5156 113.098 26.6875 112.801 26.8125C112.512 26.9375 112.203 27 111.875 27H102.758C102.43 27 102.117 26.9375 101.82 26.8125C101.531 26.6875 101.278 26.5156 101.059 26.2969C100.84 26.0781 100.668 25.8242 100.543 25.5352C100.418 25.2383 100.356 24.9258 100.356 24.5977V12.5977ZM119.804 10.1953V17.4492L127.819 10.1953H131.206L122.112 18.4336L131.569 27H128.183L119.804 19.4414V27H117.401V10.1953H119.804ZM133.65 20.7656L132.689 10.1953H135.947L134.986 20.7656H133.65ZM132.56 23.4961H136.064V27H132.56V23.4961Z"
          fill="#FF5D02"/>
</svg>
