<svg width="40" height="32" viewBox="0 0 40 32" fill="none" xmlns="http://www.w3.org/2000/svg">
    <path d="M29.3015 4.40389C28.9548 4.75058 28.9548 5.31267 29.3015 5.65936L33.4454 9.80323C33.7921 10.1499 34.3542 10.1499 34.7009 9.80323L38.8448 5.65936C39.1915 5.31267 39.1915 4.75058 38.8448 4.40389L34.7009 0.260017C34.3542 -0.0866724 33.7921 -0.0866725 33.4454 0.260017L29.3015 4.40389Z"
          fill="#FF5D02"/>
    <path d="M22.2912 12.6697C21.9445 12.323 21.9445 11.7609 22.2912 11.4142L26.435 7.27038C26.7817 6.92369 27.3438 6.92369 27.6905 7.27038L31.8344 11.4142C32.1811 11.7609 32.1811 12.323 31.8344 12.6697L27.6905 16.8136C27.3438 17.1603 26.7817 17.1603 26.435 16.8136L22.2912 12.6697Z"
          fill="#FF5D02"/>
    <path d="M1.26002 19.6801C0.913327 19.3334 0.913328 18.7713 1.26002 18.4246L5.40389 14.2808C5.75058 13.9341 6.31267 13.9341 6.65937 14.2808L10.8032 18.4246C11.1499 18.7713 11.1499 19.3334 10.8032 19.6801L6.65937 23.824C6.31267 24.1707 5.75058 24.1707 5.40389 23.824L1.26002 19.6801Z"
          fill="#FF5D02"/>
    <path d="M8.27042 26.6905C7.92373 26.3438 7.92373 25.7817 8.27042 25.435L12.4143 21.2911C12.761 20.9444 13.3231 20.9444 13.6698 21.2911L17.8136 25.435C18.1603 25.7817 18.1603 26.3438 17.8136 26.6905L13.6698 30.8343C13.3231 31.181 12.761 31.181 12.4143 30.8343L8.27042 26.6905Z"
          fill="#FF5D02"/>
    <path d="M15.2808 18.4246C14.9341 18.7713 14.9341 19.3334 15.2808 19.6801L19.4247 23.824C19.7713 24.1707 20.3334 24.1707 20.6801 23.824L24.824 19.6801C25.1707 19.3334 25.1707 18.7713 24.824 18.4246L20.6801 14.2808C20.3334 13.9341 19.7713 13.9341 19.4247 14.2808L15.2808 18.4246Z"
          fill="#FF5D02"/>
</svg>
